<svg width="53" height="53" fill="none" xmlns="http://www.w3.org/2000/svg"><g clip-path="url(#clip0_271_574)" fill="#FF0015"><path d="M36.083 33.567H16.915a1.898 1.898 0 00-1.215 3.356l2.864 2.385c.341.285.771.44 1.216.442h13.439a1.905 1.905 0 001.215-.442l2.864-2.385a1.898 1.898 0 00-1.215-3.356zm.089 2l-2.863 2.385a.14.14 0 01-.089.03H19.781a.135.135 0 01-.088-.03l-2.864-2.386a.132.132 0 01.01-.21.132.132 0 01.078-.023h19.168a.131.131 0 01.088.233h-.002zm6.254-1.559l-2.873 2.385a1.896 1.896 0 001.215 3.357H47.7c.976 0 1.767-.791 1.767-1.767v-2.65c0-.975-.791-1.766-1.767-1.766h-4.06a1.907 1.907 0 00-1.215.441zm5.274 1.325v2.65h-6.933a.116.116 0 01-.124-.088.115.115 0 01.04-.143l2.873-2.39a.13.13 0 01.089-.03l4.055.001zm-37.126-1.325a1.908 1.908 0 00-1.21-.441H5.3c-.976 0-1.767.79-1.767 1.766v2.65c0 .976.791 1.767 1.767 1.767h6.93a1.897 1.897 0 001.216-3.357l-2.872-2.385zm1.783 3.887a.116.116 0 01-.125.088H5.3v-2.65h4.063a.13.13 0 01.089.03l2.874 2.391a.114.114 0 01.03.14z"/><path fill-rule="evenodd" clip-rule="evenodd" d="M11.483 42.4H5.3a.883.883 0 000 1.767h6.183a.883.883 0 000-1.767zm36.217 0h-6.184a.883.883 0 000 1.767H47.7a.883.883 0 000-1.767zm-13.25 0h-15.9a.883.883 0 000 1.767h15.9a.883.883 0 000-1.767z"/><path d="M53 25.617a2.65 2.65 0 00-2.65-2.65h-1.767a2.633 2.633 0 00-1.998.928l-1.659-4.975a4.41 4.41 0 00-4.19-3.02H12.264a4.41 4.41 0 00-4.19 3.02l-1.658 4.975a2.634 2.634 0 00-1.998-.928H2.65a2.65 2.65 0 100 5.3h1.4L.777 31.54A2.63 2.63 0 000 33.415V45.05a2.65 2.65 0 001.767 2.488v2.812A2.65 2.65 0 004.417 53H10.6a2.65 2.65 0 002.65-2.65V47.7h26.5v2.65A2.65 2.65 0 0042.4 53h6.183a2.65 2.65 0 002.65-2.65v-2.813A2.65 2.65 0 0053 45.05V33.415a2.63 2.63 0 00-.776-1.874l-3.275-3.274h1.401a2.65 2.65 0 002.65-2.65zM9.75 19.479a2.65 2.65 0 012.513-1.812h28.474a2.649 2.649 0 012.514 1.812l2.34 7.021H7.408l2.34-7.02zM2.65 26.5a.883.883 0 010-1.767h1.767c.487 0 .883.396.883.884v.883H2.65zm8.833 23.85a.883.883 0 01-.883.883H4.417a.883.883 0 01-.884-.883V47.7h7.95v2.65zm37.984 0a.883.883 0 01-.884.883H42.4a.883.883 0 01-.883-.883V47.7h7.95v2.65zm1.508-17.56c.164.166.257.39.258.625V45.05a.883.883 0 01-.883.883H2.65a.883.883 0 01-.883-.883V33.415a.89.89 0 01.259-.625l4.523-4.523h39.902l4.523 4.523zM47.7 26.5v-.883c0-.488.395-.884.883-.884h1.767a.883.883 0 110 1.767H47.7zM11.332 14.133h8.101a2.65 2.65 0 002.488-1.766h1.192a2.677 2.677 0 001.883-.78l.727-.727a.884.884 0 01.627-.26h3.318a1.756 1.756 0 001.249-.518L31.8 9.2l.883.883a1.755 1.755 0 001.25.518h1.918a1.756 1.756 0 001.25-.518l.882-.883.884.883a1.754 1.754 0 001.249.518h1.692a1.785 1.785 0 001.06-.353l2.359-1.767a1.768 1.768 0 000-2.827l-2.359-1.766a1.779 1.779 0 00-1.06-.354H26.35a.9.9 0 01-.634-.265l-.727-.727a2.638 2.638 0 00-1.872-.774H21.92A2.65 2.65 0 0019.433 0h-8.1a2.634 2.634 0 00-1.875.776L7.843 2.391a2.63 2.63 0 00-.776 1.874v5.604a2.63 2.63 0 00.776 1.873l1.615 1.615a2.63 2.63 0 001.874.776zm10.751-10.6h1.034a.883.883 0 01.627.26l.727.727c.5.498 1.177.778 1.883.78h15.458l2.355 1.767-2.359 1.766h-1.692l-.883-.883a1.767 1.767 0 00-2.498 0l-.884.883h-1.918l-.884-.883a1.767 1.767 0 00-2.498 0l-.883.883H26.35a2.638 2.638 0 00-1.876.778l-.728.727a.897.897 0 01-.632.265h-1.03v-7.07zM8.833 9.87V4.265a.89.89 0 01.26-.625l1.614-1.614a.883.883 0 01.625-.26h8.101c.488 0 .884.396.884.884v8.833a.883.883 0 01-.884.884h-8.1a.884.884 0 01-.626-.26l-1.615-1.614a.891.891 0 01-.259-.624z"/><path d="M12.367 10.6h1.766c.976 0 1.767-.79 1.767-1.767V5.3c0-.976-.79-1.767-1.767-1.767h-1.766c-.976 0-1.767.791-1.767 1.767v3.533c0 .976.791 1.767 1.767 1.767zm0-5.3h1.766v3.533h-1.766V5.3z"/></g><defs><clipPath id="clip0_271_574"><path fill="#fff" d="M0 0h53v53H0z"/></clipPath></defs></svg>