<svg width="52" height="52" fill="none" xmlns="http://www.w3.org/2000/svg"><path d="M50.47 24.46a1.53 1.53 0 00-1.53 1.53 23 23 0 11-5.872-15.3H39.76a1.53 1.53 0 100 3.06h6.52a1.53 1.53 0 001.53-1.53V6.098a1.53 1.53 0 10-3.06 0v1.89a26 26 0 107.25 18 1.53 1.53 0 00-1.53-1.53z" fill="#FF0015"/><path d="M25.99 10.689a15.3 15.3 0 1015.3 15.3 15.316 15.316 0 00-15.3-15.3zm0 27.54a12.24 12.24 0 1112.24-12.24 12.256 12.256 0 01-12.24 12.24z" fill="#FF0015"/><path d="M30.58 24.46h-3.06v-6.12a1.53 1.53 0 00-3.06 0v7.65a1.53 1.53 0 001.53 1.53h4.59a1.53 1.53 0 100-3.06z" fill="#FF0015"/></svg>