<svg width="54" height="55" fill="none" xmlns="http://www.w3.org/2000/svg"><path d="M52.969 26.073L34.497 20 28.499 1.528a1.5 1.5 0 00-2.848 0L19.503 20 1.031 26.073a1.5 1.5 0 000 2.849l18.472 6.072 6.133 18.412a1.5 1.5 0 002.848 0l6.013-18.412 18.472-5.997a1.498 1.498 0 000-2.85v-.074zm-20.077 6.372a1.499 1.499 0 00-.944.945L27 48.248 22.052 33.39a1.5 1.5 0 00-.944-.945l-14.86-4.948 14.86-4.948a1.499 1.499 0 00.944-.944L27 6.746l4.948 14.859a1.499 1.499 0 00.944.944l14.86 4.948-14.86 4.948zm12.1-24.44a1.5 1.5 0 001.5-1.499V3.508a1.5 1.5 0 00-3 0v2.998a1.5 1.5 0 001.5 1.5zm2.999 3h2.999a1.5 1.5 0 000-3h-3a1.5 1.5 0 100 3z" fill="#FF0015"/><path d="M44.992 11.004a1.5 1.5 0 00-1.499 1.5v2.998a1.5 1.5 0 102.999 0v-2.998a1.5 1.5 0 00-1.5-1.5zm-5.997 0h2.999a1.5 1.5 0 100-2.998h-2.999a1.5 1.5 0 000 2.998zM9.113 43.99a1.5 1.5 0 001.5-1.5v-2.998a1.499 1.499 0 10-3 0v2.999a1.5 1.5 0 001.5 1.5zm5.997 0h-2.998a1.5 1.5 0 000 2.999h2.998a1.5 1.5 0 100-2.999zm-5.997 3a1.5 1.5 0 00-1.5 1.5v2.998a1.5 1.5 0 003 0v-2.999a1.5 1.5 0 00-1.5-1.5zm-2.999-3H3.116a1.5 1.5 0 000 2.999h2.998a1.5 1.5 0 100-2.999z" fill="#FF0015"/></svg>