<svg width="58" height="58" fill="none" xmlns="http://www.w3.org/2000/svg"><path d="M39.355 21.667L31.919 29l7.436 7.333a2.07 2.07 0 010 3.024 2.071 2.071 0 01-2.92 0l-7.437-7.436-7.333 7.436a2.072 2.072 0 01-2.92 0 2.071 2.071 0 010-2.92L26.076 29l-7.333-7.333a2.072 2.072 0 012.921-2.92l7.333 7.332 7.333-7.333a2.104 2.104 0 013.468 2.231 2.1 2.1 0 01-.444.69zm10.15 27.84A29 29 0 118.495 8.493a29 29 0 0141.01 41.014zm-2.92-38.093a24.857 24.857 0 10-35.093 35.213 24.857 24.857 0 0035.092-35.213z" fill="#fff"/></svg>