<svg width="29" height="28" fill="none" xmlns="http://www.w3.org/2000/svg"><path d="M19.677 10.46L15.96 14l3.718 3.54a1 1 0 01.243.332.97.97 0 01-.243 1.128 1.04 1.04 0 01-.735.29 1.055 1.055 0 01-.725-.29L14.5 15.41 10.832 19a1.069 1.069 0 01-1.46 0 .983.983 0 01-.301-.705c0-.264.108-.518.301-.705L13.04 14l-3.667-3.54a.979.979 0 01.054-1.358c.185-.178.432-.282.693-.292.26-.01.515.076.713.24l3.667 3.54 3.666-3.54a1.053 1.053 0 01.738-.31 1.084 1.084 0 01.749.285.986.986 0 01.026 1.435zm5.076 13.44a14.668 14.668 0 01-7.425 3.831c-2.812.54-5.728.263-8.377-.797a14.403 14.403 0 01-6.507-5.156A13.659 13.659 0 010 14c0-2.769.85-5.476 2.444-7.778A14.403 14.403 0 018.95 1.066a14.982 14.982 0 018.377-.797A14.667 14.667 0 0124.753 4.1a13.979 13.979 0 013.143 4.542A13.582 13.582 0 0129 14c0 1.839-.375 3.66-1.104 5.358a13.979 13.979 0 01-3.143 4.542zm-1.46-18.39a12.574 12.574 0 00-6.365-3.272c-2.41-.46-4.907-.22-7.175.69a12.344 12.344 0 00-5.57 4.42A11.708 11.708 0 002.09 14.01c0 2.372.727 4.69 2.091 6.662a12.345 12.345 0 005.57 4.42c2.27.91 4.766 1.15 7.176.69a12.574 12.574 0 006.364-3.272 11.984 11.984 0 002.705-3.898 11.633 11.633 0 000-9.204 11.984 11.984 0 00-2.705-3.898z" fill="#1E1F21"/></svg>