<svg width="230" height="88" fill="none" xmlns="http://www.w3.org/2000/svg"><path d="M6.75 30.987h5.912c1.653 0 2.9-.352 3.741-1.054.84-.703 1.262-1.758 1.262-3.163 0-1.433-.422-2.494-1.262-3.183-.84-.689-2.088-1.034-3.741-1.034H6.75v8.434zM.22 46.53V17.386h13.6c2.15 0 3.99.372 5.52 1.116 1.529.744 2.7 1.812 3.513 3.204.813 1.392 1.22 3.066 1.22 5.023 0 1.93-.407 3.596-1.22 5.002-.813 1.405-1.984 2.494-3.514 3.266-1.529.772-3.369 1.157-5.519 1.157H6.75v10.377H.22zm41.585-5.165c1.626 0 3.011-.372 4.156-1.116 1.143-.744 2.025-1.819 2.645-3.224.62-1.406.93-3.101.93-5.085 0-2.012-.304-3.714-.91-5.106-.606-1.391-1.488-2.453-2.645-3.183s-2.55-1.095-4.176-1.095c-1.598 0-2.983.365-4.155 1.095-1.171.73-2.06 1.792-2.666 3.183-.606 1.392-.91 3.094-.91 5.105 0 1.985.304 3.68.91 5.086.606 1.405 1.495 2.48 2.666 3.224 1.172.744 2.557 1.116 4.155 1.116zm0 5.623c-2.177 0-4.161-.359-5.952-1.075-1.792-.716-3.322-1.736-4.59-3.06-1.267-1.322-2.252-2.907-2.955-4.754-.703-1.846-1.054-3.9-1.054-6.16 0-2.287.351-4.347 1.054-6.18.703-1.832 1.695-3.41 2.976-4.733 1.282-1.323 2.811-2.336 4.59-3.039 1.776-.702 3.754-1.054 5.931-1.054s4.156.352 5.933 1.054c1.778.703 3.307 1.71 4.589 3.018 1.281 1.31 2.266 2.887 2.955 4.733.69 1.847 1.034 3.9 1.034 6.16 0 2.288-.345 4.355-1.034 6.201-.689 1.847-1.667 3.439-2.934 4.775-1.268 1.337-2.798 2.356-4.59 3.06-1.791.702-3.776 1.054-5.953 1.054zm32.453-.458V17.387h5.002L94.597 36.98h-.661V17.386h6.118V46.53h-5.126L79.756 27.06h.62v19.47h-6.118zm38.902 0V22.844h-9.633v-5.457h25.838v5.457h-9.632V46.53h-6.573zM9.632 87.113V63.425H0v-5.457h25.838v5.457h-9.633v23.688H9.633zm31.543-5.166c1.625 0 3.01-.372 4.155-1.116 1.143-.744 2.025-1.819 2.645-3.225.62-1.405.93-3.1.93-5.084 0-2.012-.304-3.714-.91-5.106-.606-1.391-1.488-2.453-2.645-3.183s-2.55-1.095-4.175-1.095c-1.599 0-2.984.365-4.155 1.095-1.172.73-2.06 1.792-2.666 3.183-.607 1.392-.91 3.094-.91 5.106 0 1.984.303 3.68.91 5.084.605 1.406 1.494 2.481 2.666 3.225 1.17.744 2.556 1.116 4.155 1.116zm0 5.623c-2.178 0-4.162-.359-5.953-1.075-1.792-.717-3.322-1.736-4.59-3.06-1.267-1.322-2.252-2.907-2.955-4.754-.703-1.846-1.054-3.9-1.054-6.16 0-2.287.351-4.347 1.054-6.18.703-1.832 1.695-3.41 2.977-4.733 1.28-1.323 2.81-2.336 4.588-3.039 1.778-.702 3.755-1.054 5.933-1.054 2.177 0 4.155.352 5.932 1.054 1.778.703 3.307 1.71 4.589 3.018 1.282 1.31 2.266 2.888 2.955 4.734.69 1.846 1.034 3.9 1.034 6.16 0 2.287-.345 4.354-1.034 6.2-.689 1.847-1.667 3.439-2.934 4.775-1.268 1.337-2.798 2.357-4.59 3.06-1.791.702-3.776 1.054-5.952 1.054zm65.468-15.825h5.911c1.654 0 2.901-.352 3.742-1.055.84-.703 1.261-1.757 1.261-3.162 0-1.433-.421-2.494-1.261-3.183-.841-.689-2.088-1.034-3.742-1.034h-5.911v8.434zm-6.532 15.544V58.144h13.601c2.15 0 3.99.372 5.519 1.116 1.53.744 2.701 1.812 3.514 3.204.812 1.392 1.22 3.066 1.22 5.023 0 1.93-.408 3.596-1.22 5.002-.813 1.405-1.984 2.494-3.514 3.265-1.529.772-3.369 1.158-5.519 1.158h-7.069v10.377h-6.532zM141.7 82.12c1.625 0 3.011-.373 4.155-1.117 1.143-.744 2.025-1.819 2.645-3.225.621-1.405.931-3.1.931-5.085 0-2.011-.304-3.713-.91-5.105-.606-1.391-1.488-2.453-2.645-3.183-1.158-.73-2.551-1.095-4.176-1.095-1.599 0-2.984.365-4.155 1.095-1.171.73-2.06 1.792-2.666 3.183-.606 1.392-.91 3.094-.91 5.105 0 1.985.304 3.68.91 5.085.606 1.406 1.495 2.48 2.666 3.225 1.171.744 2.556 1.116 4.155 1.116zm0 5.622c-2.177 0-4.162-.359-5.953-1.076-1.792-.716-3.321-1.735-4.589-3.058-1.268-1.323-2.253-2.908-2.955-4.755-.703-1.846-1.055-3.9-1.055-6.16 0-2.287.352-4.347 1.055-6.18.702-1.833 1.694-3.41 2.976-4.733 1.281-1.323 2.811-2.336 4.589-3.039 1.777-.702 3.755-1.054 5.932-1.054 2.177 0 4.155.352 5.932 1.054 1.778.703 3.308 1.71 4.589 3.018 1.282 1.31 2.267 2.887 2.956 4.733.689 1.847 1.033 3.9 1.033 6.16 0 2.288-.344 4.355-1.033 6.201-.689 1.847-1.668 3.439-2.935 4.775-1.268 1.337-2.798 2.356-4.589 3.06-1.792.702-3.776 1.054-5.953 1.054zm32.452-.453V58.144h5.002l15.338 19.595h-.662V58.144h6.119v29.145h-5.127L179.65 67.817h.621V87.29h-6.119zm38.9 0V63.6h-9.632v-5.457h25.838V63.6h-9.633v23.688h-6.573z" fill="#fff"/><path d="M168.061 87.289h-6.67V-.001h6.67v87.29z" fill="#FF0015"/><path d="M166.095 6.671H62.252V.001h103.843v6.67z" fill="#FF0015"/><path d="M68.237-.002h-6.67V46.53h6.67V-.002z" fill="#FF0015"/></svg>