<svg width="179" height="69" fill="none" xmlns="http://www.w3.org/2000/svg"><path d="M5.27 24.196h4.615c1.291 0 2.265-.275 2.921-.823.656-.55.985-1.373.985-2.47 0-1.118-.329-1.947-.985-2.485-.656-.538-1.63-.807-2.92-.807H5.27v6.585zM.17 36.332V13.576h10.619c1.679 0 3.115.29 4.309.872 1.194.58 2.109 1.415 2.744 2.501.634 1.087.952 2.394.952 3.922 0 1.507-.318 2.808-.952 3.905-.635 1.098-1.55 1.948-2.744 2.55-1.194.603-2.63.904-4.309.904h-5.52v8.102H.17zm32.47-4.035c1.27 0 2.352-.29 3.245-.871.893-.581 1.581-1.42 2.065-2.518.485-1.097.727-2.42.727-3.97 0-1.57-.238-2.9-.71-3.986-.474-1.087-1.162-1.915-2.066-2.486-.904-.57-1.991-.855-3.26-.855-1.248 0-2.33.285-3.244.855-.915.57-1.609 1.4-2.082 2.486-.473 1.087-.71 2.415-.71 3.986 0 1.55.237 2.873.71 3.97.473 1.098 1.167 1.937 2.082 2.518.914.58 1.996.871 3.244.871zm0 4.39c-1.7 0-3.249-.28-4.647-.84-1.4-.558-2.594-1.355-3.583-2.388-.99-1.033-1.759-2.27-2.308-3.712-.549-1.441-.823-3.044-.823-4.81 0-1.785.274-3.393.823-4.824.549-1.431 1.323-2.663 2.324-3.696a10.08 10.08 0 013.583-2.373c1.388-.548 2.932-.823 4.632-.823 1.7 0 3.244.275 4.632.823a10.197 10.197 0 013.582 2.357c1.001 1.022 1.77 2.254 2.308 3.695.538 1.442.807 3.045.807 4.81 0 1.786-.269 3.4-.807 4.841-.538 1.442-1.302 2.685-2.291 3.728-.99 1.045-2.184 1.84-3.583 2.389-1.399.549-2.949.823-4.648.823zm25.338-.355V13.576h3.906l11.975 15.3h-.517v-15.3h4.778v22.756h-4.003L62.271 21.129h.484v15.203h-4.777zm30.375 0V17.837h-7.521v-4.26h20.174v4.26h-7.521v18.495h-5.132zM7.52 68.017V49.522H0V45.26h20.174v4.26h-7.521v18.496H7.52zm24.629-4.035c1.269 0 2.35-.29 3.244-.872.892-.58 1.581-1.42 2.065-2.517.485-1.098.727-2.421.727-3.97 0-1.571-.238-2.9-.71-3.987-.474-1.086-1.163-1.915-2.066-2.485-.904-.57-1.991-.855-3.26-.855-1.248 0-2.33.285-3.245.855-.914.57-1.608 1.399-2.081 2.485-.474 1.087-.71 2.416-.71 3.986 0 1.55.236 2.873.71 3.97.473 1.098 1.167 1.937 2.081 2.518.915.581 1.997.872 3.245.872zm0 4.39c-1.7 0-3.25-.28-4.648-.84-1.4-.559-2.594-1.355-3.583-2.388-.99-1.033-1.76-2.27-2.308-3.712-.549-1.441-.823-3.045-.823-4.81 0-1.785.274-3.394.823-4.825.549-1.43 1.323-2.663 2.324-3.696a10.08 10.08 0 013.583-2.372c1.387-.549 2.932-.823 4.632-.823 1.7 0 3.244.274 4.631.823a10.197 10.197 0 013.583 2.356c1.001 1.022 1.77 2.255 2.308 3.696.538 1.442.807 3.045.807 4.81 0 1.785-.269 3.4-.807 4.84-.538 1.443-1.302 2.686-2.291 3.73-.99 1.043-2.185 1.839-3.584 2.387-1.398.55-2.948.824-4.647.824zm51.117-12.355h4.615c1.291 0 2.265-.275 2.921-.823.656-.55.985-1.372.985-2.47 0-1.118-.329-1.947-.985-2.485-.656-.537-1.63-.807-2.92-.807h-4.616v6.585zm-5.1 12.136V45.398h10.62c1.678 0 3.114.29 4.308.871s2.109 1.415 2.744 2.502c.634 1.086.952 2.394.952 3.921 0 1.507-.318 2.809-.952 3.906-.635 1.097-1.55 1.948-2.744 2.55-1.194.602-2.63.903-4.309.903h-5.52v8.102h-5.099zm32.471-4.034c1.269 0 2.351-.291 3.244-.872.893-.58 1.581-1.42 2.065-2.518.485-1.097.727-2.42.727-3.97 0-1.57-.237-2.9-.71-3.986-.474-1.086-1.162-1.915-2.066-2.486-.904-.57-1.991-.855-3.26-.855-1.248 0-2.33.286-3.244.855-.915.571-1.609 1.4-2.082 2.486-.473 1.087-.71 2.416-.71 3.986 0 1.55.237 2.873.71 3.97.473 1.098 1.167 1.937 2.082 2.518.914.581 1.996.872 3.244.872zm0 4.39c-1.7 0-3.25-.28-4.648-.84-1.399-.56-2.593-1.355-3.583-2.388-.99-1.033-1.759-2.27-2.308-3.712-.548-1.442-.823-3.045-.823-4.81 0-1.785.275-3.394.823-4.825.549-1.431 1.323-2.663 2.324-3.696a10.088 10.088 0 013.583-2.372c1.388-.549 2.932-.824 4.632-.824 1.7 0 3.244.275 4.632.824a10.203 10.203 0 013.583 2.356c1 1.022 1.769 2.254 2.307 3.696.538 1.441.807 3.045.807 4.809 0 1.786-.269 3.4-.807 4.842-.538 1.441-1.302 2.684-2.291 3.728-.99 1.044-2.184 1.84-3.583 2.388-1.399.55-2.948.823-4.648.823zm25.338-.356V45.398h3.905l11.975 15.3h-.516v-15.3h4.777v22.755h-4.003l-11.846-15.202h.485v15.202h-4.777zm30.372 0V49.658h-7.521v-4.26H179v4.26h-7.521v18.495h-5.132z" fill="#fff"/><path d="M131.218 68.153h-5.208V0h5.208v68.153z" fill="#FF0015"/><path d="M129.682 5.208H48.604V0h81.078v5.208z" fill="#FF0015"/><path d="M53.279 0H48.07v36.332h5.209V0z" fill="#FF0015"/></svg>