<svg width="48" height="64" fill="none" xmlns="http://www.w3.org/2000/svg"><path d="M24 0A24.03 24.03 0 000 24c0 17.23 22.36 38.81 23.31 39.72a.99.99 0 001.38 0C25.64 62.81 48 41.23 48 24A24.03 24.03 0 0024 0z" fill="#FF0015"/><path d="M4.236 20.677h1.083c.303 0 .53-.065.685-.193.154-.13.231-.322.231-.58 0-.262-.077-.457-.23-.583-.155-.126-.383-.19-.686-.19H4.236v1.546zm-1.197 2.847v-5.339h2.492c.394 0 .73.068 1.01.205.281.136.496.332.645.587.148.255.223.561.223.92a1.8 1.8 0 01-.223.916 1.508 1.508 0 01-.644.598c-.28.142-.617.212-1.011.212H4.236v1.901H3.039zm7.621-.946c.298 0 .551-.068.761-.204.21-.136.371-.333.485-.59.113-.258.17-.569.17-.932 0-.369-.056-.68-.166-.936a1.265 1.265 0 00-.485-.583 1.405 1.405 0 00-.765-.2 1.41 1.41 0 00-.761.2 1.256 1.256 0 00-.489.583c-.11.255-.166.567-.166.936 0 .363.055.674.166.931.111.258.274.455.489.59.214.137.468.205.761.205zm0 1.03c-.399 0-.762-.065-1.09-.197a2.36 2.36 0 01-.841-.56 2.554 2.554 0 01-.542-.871 3.148 3.148 0 01-.193-1.128c0-.42.064-.797.193-1.133.129-.335.31-.625.546-.867.234-.242.514-.428.84-.556a2.933 2.933 0 011.087-.194c.399 0 .761.065 1.087.194.325.128.606.313.84.552.235.24.416.53.542.868.126.338.19.714.19 1.128 0 .42-.064.798-.19 1.136a2.55 2.55 0 01-.538.875 2.297 2.297 0 01-.84.56 2.961 2.961 0 01-1.091.193zm5.945-.083v-5.34h.917l2.81 3.59h-.122v-3.59h1.121v5.34h-.939l-2.78-3.567h.114v3.567h-1.12zm7.125 0v-4.34h-1.765v-1h4.733v1h-1.764v4.34H23.73zM4.765 30.959v-4.34H3v-1h4.733v1H5.97v4.34H4.765zm5.778-.947c.298 0 .551-.068.761-.204.21-.136.371-.333.485-.59.113-.258.17-.569.17-.932 0-.369-.056-.68-.167-.936a1.265 1.265 0 00-.484-.583 1.406 1.406 0 00-.765-.2 1.41 1.41 0 00-.761.2 1.256 1.256 0 00-.489.583c-.11.255-.166.567-.166.936 0 .363.055.674.166.931.111.258.274.455.489.59.214.137.468.205.76.205zm0 1.03a2.91 2.91 0 01-1.09-.197 2.36 2.36 0 01-.842-.56 2.556 2.556 0 01-.54-.87 3.15 3.15 0 01-.194-1.13c0-.418.064-.796.193-1.131a2.54 2.54 0 01.545-.868 2.36 2.36 0 01.841-.556 2.933 2.933 0 011.087-.194c.399 0 .761.065 1.087.194.325.128.605.313.84.552.235.24.415.53.542.868.126.338.19.714.19 1.128 0 .42-.064.798-.19 1.136a2.57 2.57 0 01-.538.875 2.298 2.298 0 01-.84.56 2.961 2.961 0 01-1.091.194zm11.995-2.899h1.083c.303 0 .532-.064.686-.193.154-.129.23-.322.23-.58 0-.262-.076-.456-.23-.583-.154-.126-.383-.189-.686-.189h-1.083v1.545zm-1.196 2.848v-5.34h2.491c.394 0 .731.069 1.012.205.28.136.494.332.643.587.15.255.224.561.224.92a1.8 1.8 0 01-.224.916 1.509 1.509 0 01-.643.599c-.28.141-.618.212-1.012.212h-1.295v1.9h-1.196zm7.617-.946c.298 0 .551-.069.761-.205.21-.136.371-.333.485-.59.113-.258.17-.569.17-.932 0-.369-.056-.68-.167-.935a1.265 1.265 0 00-.484-.584 1.406 1.406 0 00-.765-.2 1.41 1.41 0 00-.761.2 1.256 1.256 0 00-.489.584c-.11.255-.166.566-.166.935 0 .363.055.674.166.931.111.258.274.455.489.591.214.137.468.205.76.205zm0 1.03a2.91 2.91 0 01-1.09-.197 2.36 2.36 0 01-.841-.56 2.554 2.554 0 01-.542-.872 3.148 3.148 0 01-.193-1.128c0-.42.064-.797.193-1.132.129-.336.31-.625.545-.867.235-.243.515-.428.841-.557a2.934 2.934 0 011.087-.193c.399 0 .761.064 1.087.193.325.129.605.313.84.553.235.24.416.529.542.867.126.338.19.714.19 1.128 0 .42-.064.798-.19 1.136-.127.339-.306.63-.538.875a2.296 2.296 0 01-.84.56 2.961 2.961 0 01-1.091.194zm5.945-.084v-5.34h.917l2.81 3.59h-.122v-3.59h1.121v5.34h-.939l-2.78-3.567h.114v3.567h-1.12zm7.126 0v-4.34h-1.764v-1h4.733v1h-1.765v4.34H42.03zm-8.242 0h-1.222V15h1.222v15.991z" fill="#fff"/><path d="M33.428 16.222H14.404V15h19.024v1.222z" fill="#fff"/><path d="M15.501 15H14.28v8.524h1.222V15z" fill="#fff"/></svg>