<svg width="137" height="137" fill="none" xmlns="http://www.w3.org/2000/svg"><path d="M116.937 20.063C103.999 7.125 86.797 0 68.5 0 50.203 0 33.001 7.125 20.063 20.063 7.125 33.001 0 50.203 0 68.5c0 18.297 7.125 35.499 20.063 48.437C33.001 129.875 50.203 137 68.5 137c18.297 0 35.499-7.125 48.437-20.063C129.875 103.999 137 86.797 137 68.5c0-18.297-7.125-35.499-20.063-48.437zM68.5 128.526c-33.098 0-60.026-26.928-60.026-60.026S35.402 8.474 68.5 8.474s60.026 26.928 60.026 60.026-26.928 60.026-60.026 60.026z" fill="#fff"/><path d="M51.146 95.073L97.154 68.5 51.146 41.925v53.147z" fill="#fff"/></svg>