<svg width="16" height="16" fill="none" xmlns="http://www.w3.org/2000/svg"><path d="M8.145.309a7.702 7.702 0 00-6.218 12.247l-.98 2.902 3.06-.954a7.702 7.702 0 0011.838-6.495c0-4.25-3.45-7.7-7.7-7.7zm3.525 11.83c-1.398.56-3.064.018-4.887-1.366C4.96 9.389 3.76 7.44 3.68 5.993 3.6 4.547 4.776 3.817 5.417 3.82c.64.005 1.344 2.052 1.353 2.365.01.318-.784.883-.816 1.15-.03.27 1.08 1.596 1.55 1.954.466.354 1.43 1.035 1.926.972.493-.067.82-1.057 1.134-1.12.313-.062 2.024.789 2.194 1.008.17.224.153 1.497-1.088 1.99v-.001z" fill="#fff"/></svg>